# Blender 3.3.1
# www.blender.org
mtllib ramp1.mtl
g Plane_Plane
v -9.880739 0.000561 3.237957
v -1.586195 0.000561 3.237957
v -9.880739 0.000000 -5.335453
v -1.586195 0.000000 -5.335453
v -9.880739 6.155653 -5.335453
v -1.586195 6.155653 -5.335453
v -8.454155 0.000561 3.237957
v -3.012779 0.000561 3.237957
v -3.012779 0.000000 -5.335453
v -8.454155 0.000000 -5.335453
v -8.454155 6.155653 -5.335453
v -3.012779 6.155653 -5.335453
v -8.454155 -0.000000 2.013185
v -8.454155 -0.000000 0.788412
v -8.454155 0.000000 -0.436361
v -8.454155 0.000000 -1.661134
v -8.454155 0.000000 -2.885907
v -8.454155 0.000000 -4.110680
v -3.012779 0.880341 2.013185
v -3.012779 1.759560 0.788412
v -3.012779 2.638778 -0.436361
v -3.012779 3.517997 -1.661134
v -3.012779 4.397215 -2.885907
v -3.012779 5.276434 -4.110680
v -1.586195 -0.000000 2.013185
v -1.586195 -0.000000 0.788412
v -1.586195 0.000000 -0.436361
v -1.586195 0.000000 -1.661134
v -1.586195 0.000000 -2.885907
v -1.586195 0.000000 -4.110680
v -3.012779 0.000000 -4.110680
v -3.012779 0.000000 -2.885907
v -3.012779 0.000000 -1.661134
v -3.012779 0.000000 -0.436361
v -3.012779 -0.000000 0.788412
v -3.012779 -0.000000 2.013185
v -1.586195 0.880341 2.013185
v -1.586195 1.759560 0.788412
v -1.586195 2.638778 -0.436361
v -1.586195 3.517997 -1.661134
v -1.586195 4.397215 -2.885907
v -1.586195 5.276434 -4.110680
v -9.880739 0.000000 -4.110680
v -9.880739 0.000000 -2.885907
v -9.880739 0.000000 -1.661134
v -9.880739 0.000000 -0.436361
v -9.880739 -0.000000 0.788412
v -9.880739 -0.000000 2.013185
v -8.454155 5.276434 -4.110680
v -8.454155 4.397215 -2.885907
v -8.454155 3.517997 -1.661134
v -8.454155 2.638778 -0.436361
v -8.454155 1.759560 0.788412
v -8.454155 0.880341 2.013185
v -9.880739 5.276434 -4.110680
v -9.880739 4.397215 -2.885907
v -9.880739 3.517997 -1.661134
v -9.880739 2.638778 -0.436361
v -9.880739 1.759560 0.788412
v -9.880739 0.880341 2.013185
v -5.733467 5.276434 -4.110680
v -5.733467 4.397215 -2.885907
v -5.733467 3.517997 -1.661134
v -5.733467 2.638778 -0.436361
v -5.733467 1.759907 0.787929
v -3.928865 0.000561 3.237957
v -7.538069 0.000561 3.237957
v -7.538069 0.000000 -5.335453
v -3.928865 0.000000 -5.335453
v -7.538069 6.155653 -5.335453
v -3.928865 6.155653 -5.335453
v -7.538069 0.000000 -4.110680
v -3.928865 0.000000 -4.110680
v -7.538069 0.000000 -2.885907
v -3.928865 0.000000 -2.885907
v -7.538069 0.000000 -1.661134
v -3.928865 0.000000 -1.661134
v -7.538069 0.000000 -0.436361
v -3.928865 0.000000 -0.436361
v -7.538069 -0.000000 0.788412
v -3.928865 -0.000000 0.788412
v -3.928865 -0.000000 2.013185
v -7.538069 -0.000000 2.013185
v -7.538069 0.888749 2.001472
v -3.928865 0.883679 2.008535
v -7.538069 2.653287 -0.456572
v -3.928865 2.638778 -0.436361
v -3.928865 2.638778 -0.436361
v -7.538069 4.397215 -2.885907
v -3.928865 4.410839 -2.904885
v -7.538069 4.397215 -2.885907
v -7.538069 5.276434 -4.110681
v -3.928865 5.276434 -4.110681
v -7.538069 3.517997 -1.661134
v -3.928865 3.517997 -1.661134
v -3.928865 1.759560 0.788412
v -7.538069 1.759560 0.788412
v -5.733467 0.886214 2.005003
v -5.733467 6.155653 -5.335453
v -5.733467 0.000561 3.237957
v -5.733467 -0.000000 2.013185
v -5.733467 -0.000000 0.788412
v -5.733467 0.000000 -0.436361
v -5.733467 0.000000 -1.661134
v -5.733467 0.000000 -2.885907
v -5.733467 0.000000 -4.110680
v -5.733467 0.000000 -5.335453
vn -0.0000 -0.0000 -1.0000
vn -0.0000 0.8124 0.5832
vn 1.0000 -0.0000 -0.0000
vn -1.0000 -0.0000 -0.0000
vn -0.0000 -1.0000 -0.0000
vn -0.0000 0.8122 0.5834
vn -0.0000 -1.0000 0.0005
vt 0.000027 0.512188
vt 0.402534 0.416067
vt 0.402534 0.512188
vt 0.805067 0.416067
vt 0.000000 0.512188
vt 0.701240 0.416067
vt 0.701267 0.416067
vt 0.402534 0.000000
vt 0.000000 0.928255
vt 0.701267 0.832134
vt 0.701267 0.818601
vt 0.805067 0.000000
vt 1.000000 0.416067
vt 0.402534 0.000000
vt 0.298733 0.928255
vt 0.402534 0.832134
vt 1.000000 0.818601
vt 0.000000 0.000000
vt 0.333301 0.512188
vt 0.471766 0.416067
vt 0.735835 0.416067
vt 0.069232 0.512188
vt 0.701267 0.749369
vt 0.735835 0.000000
vt 0.701267 0.485299
vt 0.471766 0.000000
vt 1.000000 0.485299
vt 0.333302 0.000000
vt 0.069232 0.000000
vt 1.000000 0.749369
vt 0.471766 0.356629
vt 0.471766 0.297191
vt 0.471766 0.237752
vt 0.471766 0.178314
vt 0.471766 0.118876
vt 0.471766 0.059438
vt 0.069232 0.439005
vt 0.069232 0.365838
vt 0.069232 0.292670
vt 0.069232 0.219502
vt 0.069232 0.146335
vt 0.069232 0.073167
vt 0.805067 0.356629
vt 0.701267 0.475505
vt 0.805067 0.297191
vt 0.701267 0.534943
vt 0.805067 0.237752
vt 0.701267 0.594381
vt 0.805067 0.178314
vt 0.701267 0.653819
vt 0.805067 0.118876
vt 0.701267 0.713258
vt 0.805067 0.059438
vt 0.701267 0.772696
vt 0.735835 0.059438
vt 0.735835 0.118876
vt 0.735835 0.178314
vt 0.735835 0.237752
vt 0.735835 0.297191
vt 0.735835 0.356629
vt 0.000000 0.439005
vt 0.658544 0.475505
vt 0.000000 0.365838
vt 0.615876 0.534943
vt 0.000000 0.292670
vt 0.573207 0.594381
vt 0.000000 0.219502
vt 0.530539 0.653819
vt 0.000000 0.146335
vt 0.487870 0.713258
vt 0.000000 0.073167
vt 0.445202 0.772696
vt 0.402534 0.059438
vt 0.000000 0.868817
vt 0.402534 0.118876
vt 0.000000 0.809379
vt 0.402534 0.178314
vt 0.000000 0.749941
vt 0.402534 0.237752
vt 0.000000 0.690503
vt 0.402534 0.297191
vt 0.000000 0.631065
vt 0.402534 0.356629
vt 0.000000 0.571626
vt 0.333302 0.073167
vt 0.333301 0.146335
vt 0.333301 0.219502
vt 0.333301 0.292670
vt 0.333301 0.365838
vt 0.333301 0.439005
vt 0.256065 0.868817
vt 0.402534 0.073168
vt 0.213396 0.809379
vt 0.402534 0.146335
vt 0.170728 0.749941
vt 0.402534 0.219502
vt 0.128060 0.690503
vt 0.402534 0.292670
vt 0.085391 0.631065
vt 0.402534 0.365838
vt 0.042723 0.571626
vt 0.402534 0.439005
vt 0.201267 0.073167
vt 0.201267 0.146335
vt 0.201267 0.219502
vt 0.201267 0.292670
vt 0.201267 0.365808
vt 0.113690 0.512188
vt 0.691378 0.416067
vt 0.516223 0.416067
vt 0.288844 0.512188
vt 0.701267 0.529757
vt 0.516223 0.000000
vt 0.691378 0.000000
vt 0.701267 0.704911
vt 1.000000 0.529757
vt 0.288844 0.000000
vt 0.113690 0.000000
vt 1.000000 0.704911
vt 0.516223 0.059438
vt 0.691378 0.059438
vt 0.516223 0.118876
vt 0.691378 0.118876
vt 0.516223 0.178314
vt 0.691378 0.178314
vt 0.516223 0.237752
vt 0.691378 0.237752
vt 0.516223 0.297191
vt 0.691378 0.297191
vt 0.691378 0.356629
vt 0.516223 0.356629
vt 0.288844 0.438305
vt 0.113690 0.438727
vt 0.288844 0.291462
vt 0.113690 0.292670
vt 0.113690 0.292670
vt 0.288844 0.146335
vt 0.113690 0.145201
vt 0.288844 0.146335
vt 0.288844 0.073167
vt 0.113690 0.073167
vt 0.288844 0.219502
vt 0.113690 0.219502
vt 0.113690 0.365838
vt 0.288844 0.365838
vt 0.201267 0.438516
vt 0.201267 0.000000
vt 1.000000 0.617333
vt 0.603800 0.416067
vt 0.201267 0.512188
vt 0.603800 0.356629
vt 0.603800 0.297191
vt 0.603800 0.237752
vt 0.603800 0.178314
vt 0.603800 0.118876
vt 0.603800 0.059438
vt 0.701267 0.617333
vt 0.603800 0.000000
s 0
usemtl Material.001
f 10/25/1 3/7/1 5/13/1 11/27/1
f 55/92/2 49/85/2 11/28/2 5/14/2
f 30/54/3 4/10/3 6/16/3 42/72/3
f 4/11/1 9/23/1 12/30/1 6/17/1
f 48/84/4 1/1/4 60/101/4
f 24/42/2 42/71/2 6/18/2 12/29/2
f 72/120/5 74/122/5 17/35/5 18/36/5
f 67/111/6 84/132/6 54/90/6 7/19/6
f 24/42/2 12/29/2 71/118/2 93/141/2
f 36/60/7 8/21/7 66/109/7 82/130/7
f 43/73/5 3/8/5 10/26/5 18/36/5
f 31/55/5 9/24/5 4/12/5 30/53/5
f 8/21/7 36/60/7 25/43/7 2/4/7
f 36/60/5 35/59/5 26/45/5 25/43/5
f 35/59/5 34/58/5 27/47/5 26/45/5
f 34/58/5 33/57/5 28/49/5 27/47/5
f 33/57/5 32/56/5 29/51/5 28/49/5
f 32/56/5 31/55/5 30/53/5 29/51/5
f 1/2/7 48/83/7 13/31/7 7/20/7
f 48/83/5 47/81/5 14/32/5 13/31/5
f 47/81/5 46/79/5 15/33/5 14/32/5
f 46/79/5 45/77/5 16/34/5 15/33/5
f 45/77/5 44/75/5 17/35/5 16/34/5
f 44/75/5 43/73/5 18/36/5 17/35/5
f 69/115/1 71/119/1 12/30/1 9/23/1
f 31/55/5 32/56/5 75/123/5 73/121/5
f 32/56/5 33/57/5 77/125/5 75/123/5
f 33/57/5 34/58/5 79/127/5 77/125/5
f 34/58/5 35/59/5 81/129/5 79/127/5
f 35/59/5 36/60/5 82/130/5 81/129/5
f 8/22/6 19/37/6 85/133/6 66/108/6
f 19/37/2 20/38/2 85/133/2
f 20/38/2 21/39/2 87/135/2 96/144/2
f 21/39/2 22/40/2 88/136/2 87/135/2
f 22/40/2 23/41/2 90/138/2 95/143/2
f 23/41/2 24/42/2 90/138/2
f 8/22/6 2/5/6 37/61/6 19/37/6
f 19/37/2 37/61/2 38/63/2 20/38/2
f 20/38/2 38/63/2 39/65/2 21/39/2
f 21/39/2 39/65/2 40/67/2 22/40/2
f 22/40/2 40/67/2 41/69/2 23/41/2
f 23/41/2 41/69/2 42/71/2 24/42/2
f 3/9/4 43/74/4 55/91/4 5/15/4
f 43/74/4 44/76/4 56/93/4 55/91/4
f 44/76/4 45/78/4 57/95/4 56/93/4
f 45/78/4 46/80/4 58/97/4 57/95/4
f 46/80/4 47/82/4 59/99/4 58/97/4
f 47/82/4 48/84/4 60/101/4 59/99/4
f 2/6/3 25/44/3 37/62/3
f 25/44/3 26/46/3 38/64/3 37/62/3
f 26/46/3 27/48/3 39/66/3 38/64/3
f 27/48/3 28/50/3 40/68/3 39/66/3
f 28/50/3 29/52/3 41/70/3 40/68/3
f 29/52/3 30/54/3 42/72/3 41/70/3
f 1/3/6 7/19/6 54/90/6 60/102/6
f 60/102/2 54/90/2 53/89/2 59/100/2
f 59/100/2 53/89/2 52/88/2 58/98/2
f 58/98/2 52/88/2 51/87/2 57/96/2
f 57/96/2 51/87/2 50/86/2 56/94/2
f 56/94/2 50/86/2 49/85/2 55/92/2
f 89/137/2 91/139/2 49/85/2 50/86/2
f 94/142/2 89/137/2 50/86/2 51/87/2
f 86/134/2 51/87/2 52/88/2
f 97/145/2 86/134/2 52/88/2 53/89/2
f 10/25/1 11/27/1 70/116/1 68/112/1
f 84/132/2 53/89/2 54/90/2
f 80/128/5 83/131/5 13/31/5 14/32/5
f 78/126/5 80/128/5 14/32/5 15/33/5
f 76/124/5 78/126/5 15/33/5 16/34/5
f 74/122/5 76/124/5 16/34/5 17/35/5
f 68/113/5 72/120/5 18/36/5 10/26/5
f 9/24/5 31/55/5 73/121/5 69/114/5
f 83/131/7 67/110/7 7/20/7 13/31/7
f 92/140/2 70/117/2 11/28/2 49/85/2
f 94/142/2 86/134/2 63/105/2
f 96/144/2 65/107/2 85/133/2
f 98/146/6 100/150/6 66/108/6 85/133/6
f 101/151/5 102/152/5 81/129/5 82/130/5
f 102/152/5 103/153/5 79/127/5 81/129/5
f 103/153/5 104/154/5 77/125/5 79/127/5
f 104/154/5 105/155/5 75/123/5 77/125/5
f 105/155/5 106/156/5 73/121/5 75/123/5
f 106/156/5 107/158/5 69/114/5 73/121/5
f 100/149/7 101/151/7 82/130/7 66/109/7
f 99/148/1 107/157/1 68/112/1 70/116/1
f 92/140/2 91/139/2 61/103/2
f 93/141/2 61/103/2 90/138/2
f 91/139/2 92/140/2 49/85/2
f 99/147/2 61/103/2 93/141/2 71/118/2
f 90/138/2 24/42/2 93/141/2
f 95/143/2 63/105/2 88/136/2
f 86/134/2 94/142/2 51/87/2
f 62/104/2 63/105/2 95/143/2 90/138/2
f 88/136/2 22/40/2 95/143/2
f 64/106/2 65/107/2 96/144/2 87/135/2
f 84/132/2 97/145/2 53/89/2
f 85/133/2 20/38/2 96/144/2
f 97/145/2 84/132/2 65/107/2
f 86/134/2 97/145/2 65/107/2 64/106/2
f 89/137/2 94/142/2 63/105/2 62/104/2
f 70/117/2 92/140/2 61/103/2 99/147/2
f 71/119/1 69/115/1 107/157/1 99/148/1
f 72/120/5 68/113/5 107/158/5 106/156/5
f 74/122/5 72/120/5 106/156/5 105/155/5
f 76/124/5 74/122/5 105/155/5 104/154/5
f 78/126/5 76/124/5 104/154/5 103/153/5
f 80/128/5 78/126/5 103/153/5 102/152/5
f 83/131/5 80/128/5 102/152/5 101/151/5
f 67/110/7 83/131/7 101/151/7 100/149/7
f 84/132/6 67/111/6 100/150/6 98/146/6
usemtl Material.002
f 61/103/2 62/104/2 90/138/2
f 64/106/2 87/135/2 88/136/2 63/105/2
f 98/146/2 85/133/2 65/107/2
f 84/132/2 98/146/2 65/107/2
f 86/134/2 64/106/2 63/105/2
f 91/139/2 89/137/2 62/104/2 61/103/2
